<svg xmlns="http://www.w3.org/2000/svg" viewBox="0 0 367.6 512"><title>slim-cat-mobile</title><path d="M110-42.8h2c3.57,1.86,5.71,5,7.55,8.42a82.65,82.65,0,0,1,6.91,18.18c1.12,4.27,3.43,6.31,7.78,7.07C146.52-7,155.46,0,161.71,10.62a141,141,0,0,1,9.68,20.82c7.5,19.44,13.23,39.49,20.22,59.1,3.34,9.36,3.47,9.24,13.48,9.34,11.9.11,11.07-1.86,11.25,11.33,0,4.18-1.26,6.29-5.68,6.07-1.36-.06-3.42-.69-3.94,1.14-.42,1.52,1.26,2.58,2.27,3.64,6.26,6.64,14.11,10.5,22.78,12.85,10,2.69,20.13,4.79,29.89,8.09,24.9,8.4,48,20.13,65.92,40,11,12.12,18.49,26.49,24.89,41.39,19.5,45.41,28.64,93.47,35.91,142,3.4,22.73,5.8,45.58,7.66,68.47.93,11.44,2.13,22.88,2,34.39H223c-.62-2.44.39-4.61,1.22-6.76,3.56-9.26,10.86-14.08,20.09-16.22,3.65-.84,4.11-1.94,1.85-4.83A54.08,54.08,0,0,1,237.8,425c-8.57-25.37-11.88-51.84-16-78.11-3.16-20.06-7.87-39.46-18.26-57.16a114.81,114.81,0,0,0-29.38-33.63c-4.36-3.33-4.5-3.33-5.25,2.33-.5,3.78-.63,7.61-.86,11.43a490.23,490.23,0,0,0,.9,74.8c1.79,19.42,2.49,38.81.81,58.29A398.7,398.7,0,0,1,158,469.2H88a28.57,28.57,0,0,1,22.27-23.44c6.74-1.32,13.28-.43,19.79,1.07,3.14.72,4.45.15,4.71-3.43a300.57,300.57,0,0,0-5-83.5c-6.6-31.8-12.81-63.67-16.1-96a94,94,0,0,0-11.94-37.09C95.42,215.64,90,204,83.8,192.75c-4.88-8.91-5.8-17.92-2.18-27.39,1.43-3.73,2.79-7.51,4.53-11.1,5-10.33,10.35-20.52,15.3-30.89,2.56-5.36,2-5.93-3.72-6.05-8.57-.19-8.57-.19-8.71-8.68,0-1.16,0-2.33,0-3.49-.07-3.64,1.34-5.65,5.33-5.35,2.65.2,5.33,0,8,0,3.63.07,4.68-1.52,3.79-5-3.05-12-14.6-21.9-27-23.41-11.75-1.44-23.25.23-34.72,2.27-3.4.61-5.28-.14-6.57-3.37C35.79,65,33.44,59.88,31.11,54.71c-1-2.15-1-4.05.49-6C48.29,27,66.48,7,91.31-5.73A7.94,7.94,0,0,0,96-11.67c1.57-7.5,3.41-14.94,6.65-21.95C104.33-37.3,106.3-40.74,110-42.8Z" transform="translate(-30.41 42.8)"/></svg>